<svg xmlns="http://www.w3.org/2000/svg" viewBox="0 0 600 600" width="600" height="600">
  <defs>
    <radialGradient id="spaceGlow" cx="50%" cy="50%" r="50%">
      <stop offset="0%" stop-color="#00ff66" stop-opacity="0.15" />
      <stop offset="100%" stop-color="#02040a" stop-opacity="0" />
    </radialGradient>
    <linearGradient id="hullGrad" x1="0%" y1="0%" x2="100%" y2="0%">
      <stop offset="0%" stop-color="#041a0d" />
      <stop offset="50%" stop-color="#0b3d1f" />
      <stop offset="100%" stop-color="#00ff66" />
    </linearGradient>
    <linearGradient id="wingGrad" x1="0%" y1="0%" x2="100%" y2="0%">
      <stop offset="0%" stop-color="#0b3d1f" />
      <stop offset="100%" stop-color="#00ff66" />
    </linearGradient>
    <linearGradient id="flameGrad" x1="100%" y1="0%" x2="0%" y2="0%">
      <stop offset="0%" stop-color="#00ff66" stop-opacity="0.9" />
      <stop offset="100%" stop-color="#00ff66" stop-opacity="0" />
    </linearGradient>
    <linearGradient id="coreFlameGrad" x1="100%" y1="0%" x2="0%" y2="0%">
      <stop offset="0%" stop-color="#ffffff" stop-opacity="1" />
      <stop offset="100%" stop-color="#ffffff" stop-opacity="0" />
    </linearGradient>
    <filter id="neonGlow" x="-20%" y="-20%" width="140%" height="140%">
      <feGaussianBlur stdDeviation="6" result="blur" />
      <feMerge>
        <feMergeNode in="blur" />
        <feMergeNode in="SourceGraphic" />
      </feMerge>
    </filter>
  </defs>
  <rect width="100%" height="100%" fill="#030712" />
  <rect width="100%" height="100%" fill="url(#spaceGlow)" />
  <circle cx="120" cy="140" r="1.5" fill="#ffffff" opacity="0.6" />
  <circle cx="480" cy="180" r="1.2" fill="#38bdf8" opacity="0.5" />
  <circle cx="160" cy="450" r="1.8" fill="#ffffff" opacity="0.7" />
  <circle cx="510" cy="420" r="1.4" fill="#00ff66" opacity="0.4" />
  <g transform="translate(300, 300) scale(1.9)">
    <polygon points="-45,-29 -85,-24 -45,-19" fill="url(#flameGrad)" />
    <polygon points="-45,-26.5 -69,-24 -45,-21.5" fill="url(#coreFlameGrad)" />
    <rect x="-49" y="-29" width="5" height="10" fill="#0f172a" stroke="#00ff66" stroke-width="1.2" />
    <polygon points="-45,-15 -85,-10 -45,-5" fill="url(#flameGrad)" />
    <polygon points="-45,-12.5 -69,-10 -45,-7.5" fill="url(#coreFlameGrad)" />
    <rect x="-49" y="-15" width="5" height="10" fill="#0f172a" stroke="#00ff66" stroke-width="1.2" />
    <polygon points="-45,5 -85,10 -45,15" fill="url(#flameGrad)" />
    <polygon points="-45,7.5 -69,10 -45,12.5" fill="url(#coreFlameGrad)" />
    <rect x="-49" y="5" width="5" height="10" fill="#0f172a" stroke="#00ff66" stroke-width="1.2" />
    <polygon points="-45,19 -85,24 -45,29" fill="url(#flameGrad)" />
    <polygon points="-45,21.5 -69,24 -45,26.5" fill="url(#coreFlameGrad)" />
    <rect x="-49" y="19" width="5" height="10" fill="#0f172a" stroke="#00ff66" stroke-width="1.2" />
    <polygon points="15,0 -58,-85 -40.5,-34 -45,0 -40.5,34 -58,85" fill="#041a0d" stroke="#00ff66" stroke-width="2" filter="url(#neonGlow)" />
    <polygon points="10,-4 -53.5,-72.25 -31.499999999999996,-29.749999999999996 -5,-6" fill="url(#wingGrad)" />
    <polygon points="10,4 -53.5,72.25 -31.499999999999996,29.749999999999996 -5,6" fill="url(#wingGrad)" />
    <polygon points="50,0 15,-15.399999999999999 -27,-22 -45,-13.2 -45,13.2 -27,22 15,15.399999999999999" fill="url(#hullGrad)" stroke="#00ff66" stroke-width="2" filter="url(#neonGlow)" />
    <line x1="46" y1="0" x2="10" y2="0" stroke="#ffffff" stroke-width="1.5" />
    <rect x="-22.5" y="-13.2" width="6" height="26.4" fill="#00ffff" />
    <rect x="-13.5" y="-11" width="4" height="22" fill="#00ffff" />
    <polygon points="22.4,0 3.2,-6 -12.8,-4.199999999999999 -16,0 -12.8,4.199999999999999 3.2,6" fill="#ff0055" stroke="#ffffff" stroke-width="1.5" opacity="0.92" filter="url(#neonGlow)" />
  </g>
  <text x="30" y="540" font-family="'Segoe UI', Roboto, sans-serif" font-weight="900" font-size="20" fill="#ffffff" letter-spacing="1">PILOT FLAGSHIP #2</text>
  <text x="30" y="565" font-family="'Courier New', monospace" font-weight="700" font-size="13" fill="#00ff66" letter-spacing="2">TOKEN #2 &#8226; DNA #422839</text>
</svg>